<svg aria-hidden="true" style="position: absolute; width: 0; height: 0; overflow: hidden;" version="1.1" xmlns="http://www.w3.org/2000/svg" xmlns:xlink="http://www.w3.org/1999/xlink">
<defs>
<symbol id="icon-RentalCar" viewBox="0 0 179 28">
<path fill="#3470ff" style="fill: var(--color1, #3470ff)" d="M176.874 13.379c-1.195 0-2.287 0.069-3.276 0.207s-2.057 0.414-3.207 0.828v13.172h-6v-19.586h4.448l0.897 2.31c1.195-0.966 2.368-1.655 3.517-2.069s2.357-0.621 3.621-0.621v5.759z"></path>
<path fill="#3470ff" style="fill: var(--color1, #3470ff)" d="M161.522 27.379c-0.736 0.161-1.391 0.276-1.966 0.345-0.552 0.069-1.207 0.103-1.965 0.103-2.207 0-3.655-0.713-4.345-2.138-0.965 0.713-1.931 1.253-2.897 1.621s-2.023 0.552-3.172 0.552c-1.034 0-1.965-0.218-2.793-0.655s-1.471-1.023-1.931-1.759c-0.46-0.736-0.69-1.54-0.69-2.414 0-1.471 0.368-2.632 1.104-3.483 0.759-0.874 1.77-1.563 3.034-2.069 1.264-0.529 3.184-1.161 5.759-1.897l1.034-0.31v-0.138c0-2.115-0.965-3.172-2.896-3.172-0.943 0-1.954 0.207-3.034 0.621s-2.322 1.080-3.724 2l-1.138-4.138c1.563-0.897 3.149-1.598 4.759-2.103 1.632-0.506 3.357-0.759 5.172-0.759 2.207 0 3.897 0.598 5.069 1.793 1.195 1.195 1.793 3.241 1.793 6.138v6.552c0 0.506 0.103 0.874 0.31 1.104 0.207 0.207 0.54 0.31 1 0.31 0.437 0 0.874-0.057 1.31-0.172l0.207 4.069zM147.764 22.241c0 0.46 0.115 0.793 0.345 1 0.253 0.207 0.644 0.31 1.173 0.31 0.965 0 2.103-0.414 3.414-1.241v-3.655l-0.517 0.172c-1.724 0.621-2.897 1.172-3.517 1.655-0.598 0.46-0.897 1.046-0.897 1.759z"></path>
<path fill="#3470ff" style="fill: var(--color1, #3470ff)" d="M131.569 28c-2.851 0-5.264-0.552-7.241-1.655-1.977-1.126-3.46-2.609-4.448-4.448-0.965-1.862-1.448-3.885-1.448-6.069 0-2.161 0.506-4.161 1.517-6 1.034-1.839 2.563-3.31 4.586-4.414s4.46-1.655 7.31-1.655c2.667 0 5.012 0.517 7.035 1.552l-1.241 4.345c-0.851-0.437-1.736-0.782-2.655-1.034-0.92-0.276-1.966-0.414-3.138-0.414-1.494 0-2.793 0.345-3.897 1.034-1.080 0.667-1.908 1.586-2.483 2.759-0.552 1.149-0.828 2.437-0.828 3.862 0 2.253 0.598 4.103 1.793 5.552 1.195 1.425 2.908 2.138 5.138 2.138 1.908 0 3.966-0.471 6.172-1.414l1.172 4.241c-0.943 0.483-2.069 0.874-3.379 1.172s-2.632 0.448-3.966 0.448z"></path>
<path fill="#101828" style="fill: var(--color2, #101828)" d="M108.121 0h6v27.586h-6v-27.586z"></path>
<path fill="#101828" style="fill: var(--color2, #101828)" d="M105.252 27.379c-0.736 0.161-1.391 0.276-1.965 0.345-0.552 0.069-1.207 0.103-1.966 0.103-2.207 0-3.655-0.713-4.345-2.138-0.966 0.713-1.931 1.253-2.897 1.621s-2.023 0.552-3.172 0.552c-1.035 0-1.966-0.218-2.793-0.655s-1.471-1.023-1.931-1.759c-0.46-0.736-0.69-1.54-0.69-2.414 0-1.471 0.368-2.632 1.103-3.483 0.759-0.874 1.77-1.563 3.035-2.069 1.264-0.529 3.184-1.161 5.759-1.897l1.034-0.31v-0.138c0-2.115-0.965-3.172-2.897-3.172-0.943 0-1.954 0.207-3.035 0.621s-2.322 1.080-3.724 2l-1.138-4.138c1.563-0.897 3.149-1.598 4.759-2.103 1.632-0.506 3.356-0.759 5.172-0.759 2.207 0 3.897 0.598 5.069 1.793 1.195 1.195 1.793 3.241 1.793 6.138v6.552c0 0.506 0.103 0.874 0.31 1.104 0.207 0.207 0.54 0.31 1 0.31 0.437 0 0.874-0.057 1.31-0.172l0.207 4.069zM91.493 22.241c0 0.46 0.115 0.793 0.345 1 0.253 0.207 0.644 0.31 1.172 0.31 0.966 0 2.103-0.414 3.414-1.241v-3.655l-0.517 0.172c-1.724 0.621-2.897 1.172-3.517 1.655-0.598 0.46-0.897 1.046-0.897 1.759z"></path>
<path fill="#101828" style="fill: var(--color2, #101828)" d="M83.342 26.31c-0.69 0.483-1.517 0.862-2.483 1.138-0.943 0.253-1.862 0.379-2.759 0.379-2.437 0-4.253-0.529-5.448-1.586-1.195-1.080-1.793-2.621-1.793-4.621v-9.379h-2.931v-2.517l3.69-1.483 1.655-5.276h3.586v5.035h5.517v4.241h-5.517v7.931c0 1.219 0.195 2.081 0.586 2.586s0.977 0.759 1.759 0.759c1.012 0 2.081-0.299 3.207-0.897l0.931 3.69z"></path>
<path fill="#101828" style="fill: var(--color2, #101828)" d="M58.083 7.586c2.552 0 4.31 0.678 5.276 2.034 0.989 1.356 1.483 3.31 1.483 5.862v12.104h-6v-11.345c0-1.609-0.195-2.724-0.586-3.345-0.368-0.621-1.092-0.931-2.172-0.931-1.172 0-2.368 0.391-3.586 1.172v14.448h-6v-19.586h4.448l0.621 1.621c2.253-1.356 4.425-2.034 6.517-2.034z"></path>
<path fill="#101828" style="fill: var(--color2, #101828)" d="M29.8 18.896c0.115 1.632 0.517 2.839 1.207 3.621s1.747 1.172 3.172 1.172c1.058 0 2.035-0.184 2.931-0.552 0.919-0.391 1.965-0.965 3.138-1.724l1.621 3.793c-1.218 0.989-2.425 1.701-3.621 2.138s-2.563 0.655-4.103 0.655c-2.276 0-4.184-0.437-5.724-1.31-1.54-0.897-2.69-2.103-3.448-3.621-0.736-1.54-1.103-3.287-1.103-5.241 0-3.103 0.873-5.586 2.621-7.448s4.299-2.793 7.655-2.793c2.667 0 4.69 0.724 6.069 2.172 1.402 1.425 2.115 3.46 2.138 6.103 0 1.034-0.149 2.046-0.448 3.034h-12.104zM36.524 15c0.023-0.138 0.034-0.322 0.034-0.552-0.023-0.943-0.276-1.655-0.759-2.138-0.483-0.506-1.149-0.759-2-0.759-2.023 0-3.287 1.149-3.793 3.448h6.517z"></path>
<path fill="#101828" style="fill: var(--color2, #101828)" d="M9.517 18.966h-3.31v8.621h-6.207v-23.448h9.379c3.356 0 5.805 0.575 7.345 1.724 1.54 1.126 2.31 2.908 2.31 5.345 0 3.172-1.161 5.299-3.483 6.379l6.586 10h-7.172l-5.448-8.621zM6.207 14.655h3.172c1.218 0 2.092-0.253 2.621-0.759 0.552-0.506 0.828-1.287 0.828-2.345 0-1.103-0.264-1.897-0.793-2.379s-1.414-0.724-2.655-0.724h-3.172v6.207z"></path>
</symbol>
<symbol id="icon-heart" viewBox="0 0 30 28">
<path fill="#f2f4f7" style="fill: var(--color2, #f2f4f7)" d="M14.933 5.13l-1.338-1.376c-3.142-3.229-8.902-2.115-10.982 1.945-0.976 1.91-1.197 4.667 0.586 8.185 1.717 3.388 5.29 7.446 11.734 11.866 6.444-4.42 10.015-8.478 11.734-11.866 1.783-3.521 1.564-6.276 0.586-8.185-2.079-4.060-7.84-5.176-10.982-1.947l-1.338 1.378zM14.933 28c-28.622-18.913-8.813-33.675-0.329-25.866 0.112 0.103 0.222 0.21 0.329 0.319 0.105-0.11 0.215-0.216 0.329-0.317 8.482-7.814 28.293 6.95-0.329 25.864z"></path>
</symbol>
<symbol id="icon-fill-heart" viewBox="0 0 30 28">
<path fill="#3470ff" style="fill: var(--color1, #3470ff)" d="M14.933 2.453c8.284-8.516 28.997 6.386 0 25.547-28.997-19.16-8.284-34.063 0-25.547z"></path>
</symbol>
<symbol id="icon-arrow" viewBox="0 0 52 28">
<path d="M0.588 0.588c0.186-0.186 0.406-0.334 0.649-0.435s0.503-0.153 0.767-0.153c0.263 0 0.524 0.052 0.767 0.153s0.464 0.249 0.649 0.435l22.584 22.588 22.584-22.588c0.186-0.186 0.407-0.333 0.65-0.434s0.504-0.152 0.766-0.152c0.263 0 0.523 0.052 0.766 0.152s0.464 0.248 0.65 0.434 0.334 0.407 0.434 0.65c0.101 0.243 0.152 0.503 0.152 0.766s-0.052 0.523-0.152 0.766c-0.1 0.243-0.248 0.464-0.434 0.65l-24 24c-0.186 0.186-0.406 0.334-0.649 0.435s-0.503 0.153-0.767 0.153c-0.263 0-0.524-0.052-0.767-0.153s-0.464-0.249-0.649-0.435l-24-24c-0.186-0.186-0.334-0.406-0.435-0.649s-0.153-0.503-0.153-0.767c0-0.263 0.052-0.524 0.153-0.767s0.249-0.464 0.435-0.649z"></path>
</symbol>
<symbol id="icon-arrow-up" viewBox="0 0 52 28">
<path d="M24.587 0.588c0.186-0.186 0.406-0.334 0.649-0.435s0.503-0.153 0.767-0.153 0.524 0.052 0.767 0.153c0.243 0.101 0.464 0.249 0.649 0.435l24 24c0.376 0.376 0.587 0.885 0.587 1.416s-0.211 1.040-0.587 1.416c-0.376 0.376-0.885 0.587-1.416 0.587s-1.040-0.211-1.416-0.587l-22.584-22.588-22.584 22.588c-0.376 0.376-0.885 0.587-1.416 0.587s-1.040-0.211-1.416-0.587c-0.376-0.376-0.587-0.885-0.587-1.416s0.211-1.040 0.587-1.416l24-24z"></path>
</symbol>
</defs>
</svg>
