<svg aria-hidden="true" style="position: absolute; width: 0; height: 0; overflow: hidden;" version="1.1" xmlns="http://www.w3.org/2000/svg" xmlns:xlink="http://www.w3.org/1999/xlink">
<defs>
<symbol id="icon-RentalCar" viewBox="0 0 179 28">
<path fill="#3470ff" style="fill: var(--color1, #3470ff)" d="M176.874 13.379c-1.195 0-2.287 0.069-3.276 0.207s-2.057 0.414-3.207 0.828v13.172h-6v-19.586h4.448l0.897 2.31c1.195-0.966 2.368-1.655 3.517-2.069s2.357-0.621 3.621-0.621v5.759z"></path>
<path fill="#3470ff" style="fill: var(--color1, #3470ff)" d="M161.522 27.379c-0.736 0.161-1.391 0.276-1.966 0.345-0.552 0.069-1.207 0.103-1.965 0.103-2.207 0-3.655-0.713-4.345-2.138-0.965 0.713-1.931 1.253-2.897 1.621s-2.023 0.552-3.172 0.552c-1.034 0-1.965-0.218-2.793-0.655s-1.471-1.023-1.931-1.759c-0.46-0.736-0.69-1.54-0.69-2.414 0-1.471 0.368-2.632 1.104-3.483 0.759-0.874 1.77-1.563 3.034-2.069 1.264-0.529 3.184-1.161 5.759-1.897l1.034-0.31v-0.138c0-2.115-0.965-3.172-2.896-3.172-0.943 0-1.954 0.207-3.034 0.621s-2.322 1.080-3.724 2l-1.138-4.138c1.563-0.897 3.149-1.598 4.759-2.103 1.632-0.506 3.357-0.759 5.172-0.759 2.207 0 3.897 0.598 5.069 1.793 1.195 1.195 1.793 3.241 1.793 6.138v6.552c0 0.506 0.103 0.874 0.31 1.104 0.207 0.207 0.54 0.31 1 0.31 0.437 0 0.874-0.057 1.31-0.172l0.207 4.069zM147.764 22.241c0 0.46 0.115 0.793 0.345 1 0.253 0.207 0.644 0.31 1.173 0.31 0.965 0 2.103-0.414 3.414-1.241v-3.655l-0.517 0.172c-1.724 0.621-2.897 1.172-3.517 1.655-0.598 0.46-0.897 1.046-0.897 1.759z"></path>
<path fill="#3470ff" style="fill: var(--color1, #3470ff)" d="M131.569 28c-2.851 0-5.264-0.552-7.241-1.655-1.977-1.126-3.46-2.609-4.448-4.448-0.965-1.862-1.448-3.885-1.448-6.069 0-2.161 0.506-4.161 1.517-6 1.034-1.839 2.563-3.31 4.586-4.414s4.46-1.655 7.31-1.655c2.667 0 5.012 0.517 7.035 1.552l-1.241 4.345c-0.851-0.437-1.736-0.782-2.655-1.034-0.92-0.276-1.966-0.414-3.138-0.414-1.494 0-2.793 0.345-3.897 1.034-1.080 0.667-1.908 1.586-2.483 2.759-0.552 1.149-0.828 2.437-0.828 3.862 0 2.253 0.598 4.103 1.793 5.552 1.195 1.425 2.908 2.138 5.138 2.138 1.908 0 3.966-0.471 6.172-1.414l1.172 4.241c-0.943 0.483-2.069 0.874-3.379 1.172s-2.632 0.448-3.966 0.448z"></path>
<path fill="#101828" style="fill: var(--color2, #101828)" d="M108.121 0h6v27.586h-6v-27.586z"></path>
<path fill="#101828" style="fill: var(--color2, #101828)" d="M105.252 27.379c-0.736 0.161-1.391 0.276-1.965 0.345-0.552 0.069-1.207 0.103-1.966 0.103-2.207 0-3.655-0.713-4.345-2.138-0.966 0.713-1.931 1.253-2.897 1.621s-2.023 0.552-3.172 0.552c-1.035 0-1.966-0.218-2.793-0.655s-1.471-1.023-1.931-1.759c-0.46-0.736-0.69-1.54-0.69-2.414 0-1.471 0.368-2.632 1.103-3.483 0.759-0.874 1.77-1.563 3.035-2.069 1.264-0.529 3.184-1.161 5.759-1.897l1.034-0.31v-0.138c0-2.115-0.965-3.172-2.897-3.172-0.943 0-1.954 0.207-3.035 0.621s-2.322 1.080-3.724 2l-1.138-4.138c1.563-0.897 3.149-1.598 4.759-2.103 1.632-0.506 3.356-0.759 5.172-0.759 2.207 0 3.897 0.598 5.069 1.793 1.195 1.195 1.793 3.241 1.793 6.138v6.552c0 0.506 0.103 0.874 0.31 1.104 0.207 0.207 0.54 0.31 1 0.31 0.437 0 0.874-0.057 1.31-0.172l0.207 4.069zM91.493 22.241c0 0.46 0.115 0.793 0.345 1 0.253 0.207 0.644 0.31 1.172 0.31 0.966 0 2.103-0.414 3.414-1.241v-3.655l-0.517 0.172c-1.724 0.621-2.897 1.172-3.517 1.655-0.598 0.46-0.897 1.046-0.897 1.759z"></path>
<path fill="#101828" style="fill: var(--color2, #101828)" d="M83.342 26.31c-0.69 0.483-1.517 0.862-2.483 1.138-0.943 0.253-1.862 0.379-2.759 0.379-2.437 0-4.253-0.529-5.448-1.586-1.195-1.080-1.793-2.621-1.793-4.621v-9.379h-2.931v-2.517l3.69-1.483 1.655-5.276h3.586v5.035h5.517v4.241h-5.517v7.931c0 1.219 0.195 2.081 0.586 2.586s0.977 0.759 1.759 0.759c1.012 0 2.081-0.299 3.207-0.897l0.931 3.69z"></path>
<path fill="#101828" style="fill: var(--color2, #101828)" d="M58.083 7.586c2.552 0 4.31 0.678 5.276 2.034 0.989 1.356 1.483 3.31 1.483 5.862v12.104h-6v-11.345c0-1.609-0.195-2.724-0.586-3.345-0.368-0.621-1.092-0.931-2.172-0.931-1.172 0-2.368 0.391-3.586 1.172v14.448h-6v-19.586h4.448l0.621 1.621c2.253-1.356 4.425-2.034 6.517-2.034z"></path>
<path fill="#101828" style="fill: var(--color2, #101828)" d="M29.8 18.896c0.115 1.632 0.517 2.839 1.207 3.621s1.747 1.172 3.172 1.172c1.058 0 2.035-0.184 2.931-0.552 0.919-0.391 1.965-0.965 3.138-1.724l1.621 3.793c-1.218 0.989-2.425 1.701-3.621 2.138s-2.563 0.655-4.103 0.655c-2.276 0-4.184-0.437-5.724-1.31-1.54-0.897-2.69-2.103-3.448-3.621-0.736-1.54-1.103-3.287-1.103-5.241 0-3.103 0.873-5.586 2.621-7.448s4.299-2.793 7.655-2.793c2.667 0 4.69 0.724 6.069 2.172 1.402 1.425 2.115 3.46 2.138 6.103 0 1.034-0.149 2.046-0.448 3.034h-12.104zM36.524 15c0.023-0.138 0.034-0.322 0.034-0.552-0.023-0.943-0.276-1.655-0.759-2.138-0.483-0.506-1.149-0.759-2-0.759-2.023 0-3.287 1.149-3.793 3.448h6.517z"></path>
<path fill="#101828" style="fill: var(--color2, #101828)" d="M9.517 18.966h-3.31v8.621h-6.207v-23.448h9.379c3.356 0 5.805 0.575 7.345 1.724 1.54 1.126 2.31 2.908 2.31 5.345 0 3.172-1.161 5.299-3.483 6.379l6.586 10h-7.172l-5.448-8.621zM6.207 14.655h3.172c1.218 0 2.092-0.253 2.621-0.759 0.552-0.506 0.828-1.287 0.828-2.345 0-1.103-0.264-1.897-0.793-2.379s-1.414-0.724-2.655-0.724h-3.172v6.207z"></path>
</symbol>
<symbol id="icon-heart" viewBox="0 0 30 28">
<path fill="#f2f4f7" style="fill: var(--color2, #f2f4f7)" d="M14.933 5.13l-1.338-1.376c-3.142-3.229-8.902-2.115-10.982 1.945-0.976 1.91-1.197 4.667 0.586 8.185 1.717 3.388 5.29 7.446 11.734 11.866 6.444-4.42 10.015-8.478 11.734-11.866 1.783-3.521 1.564-6.276 0.586-8.185-2.079-4.060-7.84-5.176-10.982-1.947l-1.338 1.378zM14.933 28c-28.622-18.913-8.813-33.675-0.329-25.866 0.112 0.103 0.222 0.21 0.329 0.319 0.105-0.11 0.215-0.216 0.329-0.317 8.482-7.814 28.293 6.95-0.329 25.864z"></path>
</symbol>
<symbol id="icon-fill-heart" viewBox="0 0 30 28">
<path fill="#3470ff" style="fill: var(--color1, #3470ff)" d="M14.933 2.453c8.284-8.516 28.997 6.386 0 25.547-28.997-19.16-8.284-34.063 0-25.547z"></path>
</symbol>
<symbol id="icon-arrow" viewBox="0 0 52 28">
<path d="M0.588 0.588c0.186-0.186 0.406-0.334 0.649-0.435s0.503-0.153 0.767-0.153c0.263 0 0.524 0.052 0.767 0.153s0.464 0.249 0.649 0.435l22.584 22.588 22.584-22.588c0.186-0.186 0.407-0.333 0.65-0.434s0.504-0.152 0.766-0.152c0.263 0 0.523 0.052 0.766 0.152s0.464 0.248 0.65 0.434 0.334 0.407 0.434 0.65c0.101 0.243 0.152 0.503 0.152 0.766s-0.052 0.523-0.152 0.766c-0.1 0.243-0.248 0.464-0.434 0.65l-24 24c-0.186 0.186-0.406 0.334-0.649 0.435s-0.503 0.153-0.767 0.153c-0.263 0-0.524-0.052-0.767-0.153s-0.464-0.249-0.649-0.435l-24-24c-0.186-0.186-0.334-0.406-0.435-0.649s-0.153-0.503-0.153-0.767c0-0.263 0.052-0.524 0.153-0.767s0.249-0.464 0.435-0.649z"></path>
</symbol>
<symbol id="icon-arrow-up" viewBox="0 0 52 28">
<path d="M24.587 0.588c0.186-0.186 0.406-0.334 0.649-0.435s0.503-0.153 0.767-0.153 0.524 0.052 0.767 0.153c0.243 0.101 0.464 0.249 0.649 0.435l24 24c0.376 0.376 0.587 0.885 0.587 1.416s-0.211 1.040-0.587 1.416c-0.376 0.376-0.885 0.587-1.416 0.587s-1.040-0.211-1.416-0.587l-22.584-22.588-22.584 22.588c-0.376 0.376-0.885 0.587-1.416 0.587s-1.040-0.211-1.416-0.587c-0.376-0.376-0.587-0.885-0.587-1.416s0.211-1.040 0.587-1.416l24-24z"></path>
</symbol>
<symbol id="icon-mileage" viewBox="0 0 32 32">
<path d="M29.49 24.875c-0.115 0.065-0.241 0.106-0.372 0.122s-0.264 0.005-0.39-0.030c-0.127-0.036-0.245-0.096-0.349-0.178s-0.19-0.183-0.254-0.298l-8.71-15.49h-2.415v1c0 0.265-0.105 0.52-0.293 0.707s-0.442 0.293-0.707 0.293c-0.265 0-0.52-0.105-0.707-0.293s-0.293-0.442-0.293-0.707v-1h-2.415l-8.71 15.49c-0.13 0.232-0.347 0.403-0.603 0.475s-0.53 0.040-0.762-0.090c-0.232-0.13-0.403-0.347-0.475-0.603s-0.040-0.53 0.090-0.762l8.165-14.51h-7.29c-0.265 0-0.52-0.105-0.707-0.293s-0.293-0.442-0.293-0.707c0-0.265 0.105-0.52 0.293-0.707s0.442-0.293 0.707-0.293h26c0.265 0 0.52 0.105 0.707 0.293s0.293 0.442 0.293 0.707-0.105 0.52-0.293 0.707c-0.187 0.188-0.442 0.293-0.707 0.293h-7.29l8.165 14.51c0.065 0.115 0.106 0.241 0.122 0.372s0.005 0.264-0.031 0.39-0.096 0.245-0.178 0.349c-0.082 0.103-0.183 0.19-0.298 0.254zM16 14c-0.265 0-0.52 0.105-0.707 0.293s-0.293 0.442-0.293 0.707v2c0 0.265 0.105 0.52 0.293 0.707s0.442 0.293 0.707 0.293c0.265 0 0.52-0.105 0.707-0.293s0.293-0.442 0.293-0.707v-2c0-0.265-0.105-0.52-0.293-0.707s-0.442-0.293-0.707-0.293zM16 21c-0.265 0-0.52 0.105-0.707 0.293s-0.293 0.442-0.293 0.707v2c0 0.265 0.105 0.52 0.293 0.707s0.442 0.293 0.707 0.293 0.52-0.105 0.707-0.293c0.188-0.188 0.293-0.442 0.293-0.707v-2c0-0.265-0.105-0.52-0.293-0.707s-0.442-0.293-0.707-0.293z"></path>
</symbol>
<symbol id="icon-location" viewBox="0 0 32 32">
<path d="M23.532 17.88c-1.048 2.124-2.468 4.24-3.92 6.14-1.379 1.79-2.852 3.506-4.412 5.14-1.56-1.634-3.033-3.35-4.412-5.14-1.452-1.9-2.872-4.016-3.92-6.14-1.060-2.146-1.668-4.156-1.668-5.88 0-2.652 1.054-5.196 2.929-7.071s4.419-2.929 7.071-2.929c2.652 0 5.196 1.054 7.071 2.929s2.929 4.419 2.929 7.071c0 1.724-0.61 3.734-1.668 5.88zM15.2 32c0 0 12-11.372 12-20 0-3.183-1.264-6.235-3.515-8.485s-5.303-3.515-8.485-3.515-6.235 1.264-8.485 3.515c-2.25 2.25-3.515 5.303-3.515 8.485 0 8.628 12 20 12 20z"></path>
<path d="M15.2 16c-1.061 0-2.078-0.421-2.828-1.172s-1.172-1.768-1.172-2.828c0-1.061 0.421-2.078 1.172-2.828s1.768-1.172 2.828-1.172c1.061 0 2.078 0.421 2.828 1.172s1.172 1.768 1.172 2.828c0 1.061-0.421 2.078-1.172 2.828s-1.768 1.172-2.828 1.172zM15.2 18c1.591 0 3.117-0.632 4.243-1.757s1.757-2.651 1.757-4.243c0-1.591-0.632-3.117-1.757-4.243s-2.651-1.757-4.243-1.757c-1.591 0-3.117 0.632-4.243 1.757s-1.757 2.651-1.757 4.243c0 1.591 0.632 3.117 1.757 4.243s2.651 1.757 4.243 1.757z"></path>
</symbol>
<symbol id="icon-check-circle" viewBox="0 0 32 32">
<path d="M16 30c-3.713 0-7.274-1.475-9.899-4.101s-4.101-6.186-4.101-9.899 1.475-7.274 4.101-9.899c2.626-2.626 6.186-4.101 9.899-4.101s7.274 1.475 9.899 4.101c2.626 2.626 4.101 6.186 4.101 9.899s-1.475 7.274-4.101 9.899c-2.625 2.626-6.186 4.101-9.899 4.101zM16 32c4.243 0 8.313-1.686 11.314-4.686s4.686-7.070 4.686-11.314c0-4.243-1.686-8.313-4.686-11.314s-7.070-4.686-11.314-4.686c-4.243 0-8.313 1.686-11.314 4.686s-4.686 7.070-4.686 11.314c0 4.243 1.686 8.313 4.686 11.314s7.070 4.686 11.314 4.686z"></path>
<path d="M21.941 9.94l-0.040 0.044-6.946 8.85-4.186-4.188c-0.284-0.265-0.66-0.409-1.049-0.402s-0.759 0.164-1.034 0.439c-0.275 0.275-0.432 0.646-0.439 1.034s0.137 0.765 0.402 1.049l5.292 5.294c0.143 0.142 0.312 0.254 0.499 0.33s0.387 0.112 0.588 0.108c0.201-0.004 0.4-0.048 0.584-0.13s0.349-0.2 0.487-0.348l7.984-9.98c0.272-0.285 0.421-0.666 0.414-1.060s-0.168-0.77-0.45-1.046-0.66-0.43-1.054-0.429c-0.394 0.001-0.772 0.157-1.052 0.435z"></path>
</symbol>
<symbol id="icon-settings" viewBox="0 0 32 32">
<path d="M16 9.507c-0.853 0-1.697 0.168-2.484 0.494s-1.503 0.804-2.106 1.407c-0.603 0.603-1.081 1.319-1.407 2.106s-0.494 1.632-0.494 2.484c0 0.853 0.168 1.697 0.494 2.484s0.804 1.503 1.407 2.106c0.603 0.603 1.319 1.081 2.106 1.407s1.632 0.494 2.484 0.494c1.722 0 3.373-0.684 4.591-1.902s1.901-2.869 1.901-4.59-0.684-3.373-1.901-4.591c-1.218-1.217-2.869-1.901-4.591-1.901zM11.508 15.999c0-1.191 0.473-2.334 1.316-3.176s1.985-1.316 3.176-1.316c1.191 0 2.334 0.473 3.176 1.316s1.316 1.985 1.316 3.176-0.473 2.334-1.316 3.176c-0.842 0.842-1.985 1.316-3.176 1.316s-2.334-0.473-3.176-1.316c-0.842-0.842-1.316-1.985-1.316-3.176z"></path>
<path d="M19.591 2.685c-1.054-3.58-6.13-3.58-7.184 0l-0.188 0.638c-0.074 0.25-0.202 0.48-0.376 0.674s-0.389 0.346-0.63 0.446c-0.241 0.1-0.501 0.144-0.761 0.131s-0.514-0.086-0.743-0.21l-0.584-0.32c-3.28-1.784-6.866 1.804-5.080 5.082l0.318 0.584c0.125 0.229 0.196 0.483 0.21 0.743s-0.031 0.52-0.131 0.761c-0.1 0.241-0.252 0.456-0.446 0.63s-0.424 0.303-0.674 0.376l-0.638 0.188c-3.58 1.054-3.58 6.13 0 7.184l0.638 0.188c0.25 0.074 0.48 0.202 0.674 0.376s0.346 0.389 0.446 0.63c0.1 0.241 0.144 0.501 0.131 0.761s-0.086 0.514-0.21 0.743l-0.32 0.584c-1.784 3.28 1.802 6.868 5.082 5.080l0.584-0.318c0.229-0.125 0.483-0.196 0.743-0.21s0.52 0.031 0.761 0.13c0.241 0.1 0.456 0.252 0.63 0.446s0.303 0.424 0.376 0.674l0.188 0.638c1.054 3.58 6.13 3.58 7.184 0l0.188-0.638c0.074-0.25 0.202-0.48 0.376-0.674s0.389-0.346 0.63-0.446c0.241-0.1 0.501-0.144 0.761-0.13s0.514 0.086 0.743 0.21l0.584 0.32c3.28 1.786 6.868-1.804 5.080-5.082l-0.318-0.584c-0.125-0.229-0.196-0.483-0.21-0.743s0.031-0.52 0.13-0.761c0.1-0.241 0.252-0.456 0.446-0.63s0.424-0.303 0.674-0.376l0.638-0.188c3.58-1.054 3.58-6.13 0-7.184l-0.638-0.188c-0.25-0.074-0.48-0.202-0.674-0.376s-0.346-0.389-0.446-0.63c-0.1-0.241-0.144-0.501-0.13-0.761s0.086-0.514 0.21-0.743l0.32-0.584c1.786-3.28-1.804-6.866-5.082-5.080l-0.584 0.318c-0.229 0.125-0.483 0.196-0.743 0.21s-0.52-0.031-0.761-0.131c-0.241-0.1-0.456-0.252-0.63-0.446s-0.303-0.424-0.376-0.674l-0.188-0.638zM14.325 3.251c0.492-1.67 2.856-1.67 3.348 0l0.188 0.638c0.158 0.536 0.434 1.030 0.808 1.446s0.836 0.742 1.352 0.956c0.516 0.214 1.074 0.309 1.632 0.28s1.103-0.184 1.593-0.452l0.582-0.32c1.528-0.83 3.2 0.84 2.368 2.37l-0.318 0.584c-0.267 0.491-0.421 1.035-0.45 1.593s0.066 1.116 0.28 1.632c0.214 0.516 0.541 0.978 0.957 1.352s0.91 0.649 1.446 0.807l0.636 0.188c1.67 0.492 1.67 2.856 0 3.348l-0.638 0.188c-0.536 0.158-1.030 0.434-1.446 0.808s-0.742 0.836-0.956 1.352c-0.214 0.516-0.309 1.074-0.28 1.632s0.184 1.103 0.452 1.593l0.32 0.582c0.83 1.528-0.84 3.2-2.37 2.368l-0.582-0.318c-0.491-0.268-1.036-0.422-1.594-0.451s-1.116 0.066-1.633 0.28c-0.517 0.214-0.979 0.541-1.352 0.957s-0.65 0.91-0.807 1.446l-0.188 0.636c-0.492 1.67-2.856 1.67-3.348 0l-0.188-0.638c-0.158-0.536-0.434-1.030-0.808-1.445s-0.835-0.742-1.352-0.956c-0.516-0.214-1.074-0.309-1.632-0.28s-1.102 0.184-1.593 0.451l-0.584 0.32c-1.528 0.83-3.2-0.84-2.368-2.37l0.318-0.582c0.268-0.491 0.423-1.036 0.452-1.594s-0.066-1.116-0.279-1.633c-0.214-0.517-0.541-0.979-0.957-1.353s-0.91-0.65-1.447-0.808l-0.638-0.188c-1.67-0.492-1.67-2.856 0-3.348l0.638-0.188c0.536-0.158 1.029-0.434 1.444-0.808s0.742-0.835 0.955-1.351c0.214-0.516 0.309-1.073 0.28-1.631s-0.183-1.102-0.45-1.592l-0.32-0.584c-0.83-1.528 0.84-3.2 2.37-2.368l0.584 0.318c0.491 0.267 1.035 0.421 1.593 0.451s1.115-0.066 1.632-0.28c0.516-0.214 0.978-0.54 1.352-0.956s0.65-0.909 0.808-1.445l0.188-0.638z"></path>
</symbol>
<symbol id="icon-fuel" viewBox="0 0 32 32">
<path d="M6 5c0-0.265 0.105-0.52 0.293-0.707s0.442-0.293 0.707-0.293h10c0.265 0 0.52 0.105 0.707 0.293s0.293 0.442 0.293 0.707v10c0 0.265-0.105 0.52-0.293 0.707s-0.442 0.293-0.707 0.293h-10c-0.265 0-0.52-0.105-0.707-0.293s-0.293-0.442-0.293-0.707v-10z"></path>
<path d="M2 4c0-1.061 0.421-2.078 1.172-2.828s1.768-1.172 2.828-1.172h12c1.061 0 2.078 0.421 2.828 1.172s1.172 1.768 1.172 2.828v16c1.061 0 2.078 0.421 2.828 1.172s1.172 1.768 1.172 2.828v1c0 0.265 0.105 0.52 0.293 0.707s0.442 0.293 0.707 0.293 0.52-0.105 0.707-0.293c0.187-0.188 0.293-0.442 0.293-0.707v-9h-1c-0.265 0-0.52-0.105-0.707-0.293s-0.293-0.442-0.293-0.707v-6.25c0-0.265 0.105-0.52 0.293-0.707s0.442-0.293 0.707-0.293h2.99c-0.022-0.952-0.106-1.788-0.402-2.444-0.158-0.381-0.435-0.702-0.788-0.916-0.368-0.22-0.928-0.39-1.8-0.39-0.265 0-0.52-0.105-0.707-0.293s-0.293-0.442-0.293-0.707 0.105-0.52 0.293-0.707c0.188-0.188 0.442-0.293 0.707-0.293 1.128-0.003 2.069 0.221 2.824 0.672 0.766 0.456 1.268 1.102 1.588 1.814 0.59 1.31 0.588 2.93 0.588 4.162v6.35c0 0.131-0.025 0.262-0.076 0.383s-0.124 0.232-0.217 0.325-0.203 0.167-0.325 0.217c-0.122 0.050-0.252 0.076-0.383 0.076h-1v9c0 0.796-0.316 1.559-0.879 2.121s-1.326 0.879-2.121 0.879c-0.796 0-1.559-0.316-2.121-0.879s-0.879-1.326-0.879-2.121v-1c0-0.53-0.211-1.039-0.586-1.414s-0.884-0.586-1.414-0.586v8h1c0.265 0 0.52 0.105 0.707 0.293s0.293 0.442 0.293 0.707-0.105 0.52-0.293 0.707c-0.188 0.187-0.442 0.293-0.707 0.293h-22c-0.265 0-0.52-0.105-0.707-0.293s-0.293-0.442-0.293-0.707 0.105-0.52 0.293-0.707c0.188-0.187 0.442-0.293 0.707-0.293h1v-26zM20 4c0-0.53-0.211-1.039-0.586-1.414s-0.884-0.586-1.414-0.586h-12c-0.53 0-1.039 0.211-1.414 0.586s-0.586 0.884-0.586 1.414v26h16v-26z"></path>
</symbol>
<symbol id="icon-car" viewBox="0 0 32 32">
<path d="M7.998 18c0 0.53-0.211 1.039-0.586 1.414s-0.884 0.586-1.414 0.586c-0.53 0-1.039-0.211-1.414-0.586s-0.586-0.884-0.586-1.414c0-0.53 0.211-1.039 0.586-1.414s0.884-0.586 1.414-0.586c0.53 0 1.039 0.211 1.414 0.586s0.586 0.884 0.586 1.414zM27.998 18c0 0.53-0.211 1.039-0.586 1.414s-0.884 0.586-1.414 0.586-1.039-0.211-1.414-0.586c-0.375-0.375-0.586-0.884-0.586-1.414s0.211-1.039 0.586-1.414c0.375-0.375 0.884-0.586 1.414-0.586s1.039 0.211 1.414 0.586c0.375 0.375 0.586 0.884 0.586 1.414zM11.998 16c-0.53 0-1.039 0.211-1.414 0.586s-0.586 0.884-0.586 1.414c0 0.53 0.211 1.039 0.586 1.414s0.884 0.586 1.414 0.586h8c0.53 0 1.039-0.211 1.414-0.586s0.586-0.884 0.586-1.414-0.211-1.039-0.586-1.414c-0.375-0.375-0.884-0.586-1.414-0.586h-8zM9.722 8.552l-1.912 3.828c-0.078 0.161-0.112 0.34-0.099 0.519s0.073 0.351 0.174 0.499c0.101 0.148 0.239 0.267 0.4 0.345s0.341 0.112 0.519 0.098c1.82-0.146 4.7-0.34 7.194-0.34s5.376 0.194 7.194 0.34c0.179 0.013 0.358-0.021 0.519-0.098s0.299-0.197 0.4-0.345c0.101-0.148 0.161-0.32 0.174-0.499s-0.021-0.358-0.099-0.519l-1.912-3.826c-0.083-0.166-0.21-0.306-0.368-0.404s-0.34-0.15-0.526-0.15h-10.764c-0.186 0-0.367 0.052-0.525 0.149s-0.286 0.237-0.369 0.403z"></path>
<path d="M5.038 7.030c0.386-0.9 1.027-1.667 1.845-2.206s1.776-0.825 2.755-0.824h12.724c2 0 3.808 1.192 4.596 3.030l1.584 3.696c0.15 0.35 0.42 0.638 0.76 0.808 1 0.5 1.71 1.43 1.93 2.524l0.67 3.358c0.067 0.323 0.099 0.649 0.098 0.98v0.826c0 1.628-0.78 3.086-2 3.994v3.784c0 0.265-0.105 0.52-0.293 0.707s-0.442 0.293-0.707 0.293h-4c-0.265 0-0.52-0.105-0.707-0.293s-0.293-0.442-0.293-0.707v-2.676c-2.584 0.096-5.49 0.176-8 0.176s-5.416-0.080-8-0.176v2.676c0 0.265-0.105 0.52-0.293 0.707s-0.442 0.293-0.707 0.293h-4c-0.265 0-0.52-0.105-0.707-0.293s-0.293-0.442-0.293-0.707v-3.784c-1.22-0.908-2-2.366-2-3.994v-0.826c0-0.329 0.033-0.657 0.098-0.98l0.67-3.36c0.22-1.092 0.93-2.024 1.928-2.522 0.342-0.17 0.613-0.456 0.762-0.808l1.584-3.696h-0.004zM9.638 6c-0.587 0-1.162 0.173-1.652 0.496s-0.875 0.784-1.106 1.324l-1.584 3.694c-0.336 0.786-0.941 1.427-1.706 1.808-0.22 0.109-0.413 0.268-0.562 0.463s-0.251 0.423-0.298 0.665l-0.672 3.358c-0.039 0.194-0.059 0.39-0.060 0.588v0.826c0 1.592 1.24 2.896 2.816 2.968 3.11 0.14 7.572 0.31 11.184 0.31s8.074-0.168 11.184-0.31c0.761-0.037 1.479-0.366 2.003-0.919s0.816-1.287 0.813-2.049v-0.826c0-0.197-0.020-0.393-0.060-0.588l-0.67-3.36c-0.047-0.241-0.149-0.468-0.299-0.663s-0.341-0.354-0.561-0.463c-0.765-0.381-1.37-1.022-1.706-1.808l-1.584-3.696c-0.231-0.54-0.616-1-1.107-1.323s-1.065-0.495-1.653-0.495h-12.72z"></path>
</symbol>
<symbol id="icon-calendar" viewBox="0 0 32 32">
<path d="M7 0c0.265 0 0.52 0.105 0.707 0.293s0.293 0.442 0.293 0.707v1h16v-1c0-0.265 0.105-0.52 0.293-0.707s0.442-0.293 0.707-0.293 0.52 0.105 0.707 0.293c0.187 0.188 0.293 0.442 0.293 0.707v1h2c1.061 0 2.078 0.421 2.828 1.172s1.172 1.768 1.172 2.828v22c0 1.061-0.421 2.078-1.172 2.828s-1.768 1.172-2.828 1.172h-24c-1.061 0-2.078-0.421-2.828-1.172s-1.172-1.768-1.172-2.828v-22c0-1.061 0.421-2.078 1.172-2.828s1.768-1.172 2.828-1.172h2v-1c0-0.265 0.105-0.52 0.293-0.707s0.442-0.293 0.707-0.293zM4 4c-0.53 0-1.039 0.211-1.414 0.586s-0.586 0.884-0.586 1.414v22c0 0.53 0.211 1.039 0.586 1.414s0.884 0.586 1.414 0.586h24c0.53 0 1.039-0.211 1.414-0.586s0.586-0.884 0.586-1.414v-22c0-0.53-0.211-1.039-0.586-1.414s-0.884-0.586-1.414-0.586h-24z"></path>
<path d="M5 8c0-0.265 0.105-0.52 0.293-0.707s0.442-0.293 0.707-0.293h20c0.265 0 0.52 0.105 0.707 0.293s0.293 0.442 0.293 0.707v2c0 0.265-0.105 0.52-0.293 0.707s-0.442 0.293-0.707 0.293h-20c-0.265 0-0.52-0.105-0.707-0.293s-0.293-0.442-0.293-0.707v-2zM22 15c0-0.265 0.105-0.52 0.293-0.707s0.442-0.293 0.707-0.293h2c0.265 0 0.52 0.105 0.707 0.293s0.293 0.442 0.293 0.707v2c0 0.265-0.105 0.52-0.293 0.707s-0.442 0.293-0.707 0.293h-2c-0.265 0-0.52-0.105-0.707-0.293s-0.293-0.442-0.293-0.707v-2zM16 15c0-0.265 0.105-0.52 0.293-0.707s0.442-0.293 0.707-0.293h2c0.265 0 0.52 0.105 0.707 0.293s0.293 0.442 0.293 0.707v2c0 0.265-0.105 0.52-0.293 0.707s-0.442 0.293-0.707 0.293h-2c-0.265 0-0.52-0.105-0.707-0.293s-0.293-0.442-0.293-0.707v-2zM6 21c0-0.265 0.105-0.52 0.293-0.707s0.442-0.293 0.707-0.293h2c0.265 0 0.52 0.105 0.707 0.293s0.293 0.442 0.293 0.707v2c0 0.265-0.105 0.52-0.293 0.707s-0.442 0.293-0.707 0.293h-2c-0.265 0-0.52-0.105-0.707-0.293s-0.293-0.442-0.293-0.707v-2zM12 21c0-0.265 0.105-0.52 0.293-0.707s0.442-0.293 0.707-0.293h2c0.265 0 0.52 0.105 0.707 0.293s0.293 0.442 0.293 0.707v2c0 0.265-0.105 0.52-0.293 0.707s-0.442 0.293-0.707 0.293h-2c-0.265 0-0.52-0.105-0.707-0.293s-0.293-0.442-0.293-0.707v-2z"></path>
</symbol>
</defs>
</svg>
